<?xml version="1.0" standalone="no"?>
<!DOCTYPE svg PUBLIC "-//W3C//DTD SVG 20010904//EN"
 "http://www.w3.org/TR/2001/REC-SVG-20010904/DTD/svg10.dtd">
<svg version="1.0" xmlns="http://www.w3.org/2000/svg"
 width="1280.000000pt" height="1157.000000pt" viewBox="0 0 1280.000000 1157.000000"
 preserveAspectRatio="xMidYMid meet">
<metadata>
Created by potrace 1.15, written by Peter Selinger 2001-2017
</metadata>
<g transform="translate(0.000000,1157.000000) scale(0.100000,-0.100000)"
fill="#000000" stroke="none">
<path d="M11810 11545 c-58 -43 -93 -96 -198 -297 -111 -214 -118 -229 -227
-543 -140 -403 -145 -415 -181 -401 -15 6 -16 19 -10 114 7 127 23 205 109
542 36 140 71 290 78 332 16 99 4 146 -57 206 -36 36 -48 43 -76 40 -40 -4
-89 -65 -147 -183 -41 -83 -294 -753 -421 -1115 -105 -300 -176 -446 -247
-513 -28 -26 -30 -27 -45 -10 -9 10 -31 63 -48 118 -89 277 -209 429 -384 488
-83 28 -207 17 -230 -22 -12 -18 19 -74 77 -140 62 -72 156 -244 183 -336 14
-50 15 -77 8 -170 -5 -60 -8 -162 -8 -227 2 -148 16 -192 140 -440 124 -247
184 -384 184 -418 0 -15 -52 -135 -116 -266 -64 -131 -172 -358 -241 -504
-122 -259 -193 -394 -237 -455 -66 -90 -194 -322 -237 -427 -54 -134 -63 -146
-245 -339 -145 -153 -176 -193 -209 -275 -17 -42 -31 -60 -52 -69 -16 -7 -56
-42 -90 -79 l-60 -66 -113 0 c-111 0 -113 0 -169 35 -79 49 -146 72 -239 84
-43 6 -95 19 -113 30 -19 10 -60 26 -91 35 -48 14 -62 23 -88 60 -39 53 -63
65 -121 59 l-45 -5 -79 88 c-416 464 -530 544 -686 488 -79 -28 -172 -42 -324
-49 -158 -7 -245 -20 -410 -62 -91 -23 -129 -26 -405 -35 -358 -10 -348 -9
-470 -41 -140 -37 -219 -64 -266 -92 -24 -14 -44 -25 -46 -25 -2 0 -47 42 -99
93 -75 74 -113 102 -187 140 -51 26 -100 47 -108 47 -21 0 -18 19 17 101 17
41 39 112 49 159 11 47 28 126 39 175 11 50 27 149 36 220 24 198 23 193 61
211 42 20 55 41 93 148 22 61 32 111 35 166 3 76 5 81 45 127 107 125 133 233
87 363 -41 113 -41 110 -2 174 44 73 66 169 66 288 0 89 -25 221 -50 267 -22
42 -12 59 51 92 138 74 154 199 52 399 -83 164 -187 273 -393 417 -226 157
-327 194 -573 213 -110 8 -137 14 -205 43 -106 46 -166 60 -407 93 -140 19
-402 14 -545 -11 -314 -56 -669 -196 -836 -329 -45 -36 -117 -104 -160 -151
-54 -60 -94 -94 -131 -112 -117 -58 -171 -157 -182 -334 -5 -95 -9 -108 -33
-137 -15 -18 -32 -49 -38 -70 -13 -50 -13 -185 2 -233 10 -35 9 -42 -10 -62
-52 -55 -51 -189 2 -287 l23 -43 -19 -71 c-29 -106 -21 -187 30 -306 29 -68
43 -120 51 -185 12 -98 23 -154 52 -285 10 -47 25 -123 34 -170 21 -113 31
-136 51 -119 12 10 20 7 42 -14 16 -15 33 -27 40 -27 6 0 28 -15 48 -33 l37
-32 -6 27 c-7 25 -4 28 26 33 19 4 47 5 63 3 l29 -3 21 -155 c11 -85 27 -180
34 -210 27 -115 135 -362 224 -514 51 -86 56 -100 56 -153 0 -77 -17 -107
-158 -287 l-113 -143 -152 -90 c-84 -50 -255 -150 -382 -223 -126 -73 -373
-225 -548 -337 -369 -237 -543 -336 -795 -452 -190 -87 -247 -126 -301 -205
-63 -91 -127 -287 -134 -406 -3 -36 -9 -135 -16 -220 -19 -255 -30 -945 -19
-1161 13 -249 4 -710 -16 -849 -31 -210 -40 -433 -27 -688 7 -130 14 -340 17
-467 3 -126 10 -302 15 -390 16 -255 28 -452 34 -565 4 -58 8 -111 10 -118 4
-10 803 -12 3972 -10 l3968 3 7 45 c23 162 59 477 68 600 5 80 14 208 20 285
5 77 12 221 15 320 8 269 35 780 45 865 5 41 15 206 21 365 11 258 10 325 -7
600 -10 171 -18 352 -19 404 l0 93 90 33 c50 18 135 54 190 80 99 48 101 48
235 56 134 7 229 21 409 59 231 50 292 72 587 211 74 35 193 112 255 165 25
21 108 77 186 123 242 144 304 198 489 427 145 182 214 282 339 499 101 175
134 241 205 409 57 137 281 582 347 691 126 207 288 409 510 636 84 86 153
163 153 171 0 9 -7 21 -15 28 -29 24 -119 176 -194 329 -58 118 -86 191 -111
282 -18 68 -68 228 -112 354 -44 127 -82 242 -85 256 -4 22 15 50 128 180 210
244 235 290 361 663 79 235 82 243 158 376 99 177 111 195 187 280 88 100 287
394 304 449 14 48 0 98 -43 147 -37 42 -77 45 -124 9 -19 -14 -96 -98 -171
-187 -76 -89 -167 -194 -203 -234 -86 -95 -245 -234 -269 -234 -30 0 -71 39
-71 67 0 14 25 74 55 133 30 59 64 131 75 160 11 28 58 131 104 228 154 329
190 444 184 587 -6 137 -51 215 -136 231 -28 6 -37 2 -65 -28 -38 -40 -160
-282 -212 -418 -28 -72 -234 -507 -294 -620 -12 -21 -65 -20 -69 2 -2 10 32
81 75 160 43 78 108 217 144 308 37 91 99 242 139 335 104 246 122 299 123
380 2 58 -2 78 -23 114 -32 57 -67 82 -121 88 -36 4 -50 0 -79 -22z"/>
</g>
</svg>
